<?xml version="1.0" encoding="iso-8859-1"?>
<!-- Generator: Adobe Illustrator 19.0.0, SVG Export Plug-In . SVG Version: 6.00 Build 0)  -->
<svg version="1.1" id="Capa_1" xmlns="http://www.w3.org/2000/svg" xmlns:xlink="http://www.w3.org/1999/xlink" x="0px" y="0px"
	 viewBox="0 0 353.178 353.178" style="enable-background:new 0 0 353.178 353.178;" xml:space="preserve">
<g>
	<g>
		<path d="M352.62,188.389c-1.6-4-6-5.6-9.6-4c-42,18.4-62.8,9.6-84.8,0.4c-22-9.2-44.4-18.8-84.4-0.4c-42,18.4-62.8,9.6-84.8,0.4
			c-22-9.2-44.8-18.8-84.8,0c-3.6,1.6-5.2,6-3.6,9.6c1.6,3.6,6,5.2,9.6,3.6c34-16,52-8.4,72.8,0.4c13.2,5.6,27.6,11.6,46.4,11.6
			c13.6,0,30-3.2,50-12c34-16,52-8.4,72.8,0.4c13.2,5.6,27.6,11.6,46.4,11.6c13.6,0,30-3.2,50-12
			C352.22,196.389,354.22,191.989,352.62,188.389z"/>
	</g>
</g>
<g>
	<g>
		<path d="M352.22,251.989c-1.2-3.6-5.6-5.6-9.2-4c-42,18.4-62.8,9.6-84.8,0.4c-22-9.2-44.4-18.8-84.4-0.4
			c-42,18.4-62.8,9.6-84.8,0.4c-22-9.2-44.8-18.8-84.8,0c-3.6,1.6-5.2,6-3.6,9.6c1.6,3.6,6,5.2,9.6,3.6c34-16,52-8.4,72.8,0.4
			c13.2,5.6,27.6,11.6,46.4,11.6c13.6,0,30-3.2,50-12c34-16,52-8.4,72.8,0.4c13.2,5.6,27.6,11.6,46.4,11.6c13.6,0,30-3.2,50-12
			C352.22,259.989,354.22,255.589,352.22,251.989z"/>
	</g>
</g>
<g>
	<g>
		<path d="M352.22,315.989c-1.2-4-5.6-5.6-9.2-4c-42,18.4-62.8,9.6-84.8,0.4c-22-9.2-44.4-18.8-84.4-0.4c-42,18.4-62.8,9.6-84.8,0.4
			s-44.8-18.8-84.8,0c-3.6,1.6-5.2,6-3.6,9.6c1.6,3.6,6,5.2,9.6,3.6c34-16,52-8.4,72.8,0.4c13.2,5.6,27.6,11.6,46.4,11.6
			c13.6,0,30-3.2,50-12c34-16,52-8.4,72.8,0.4c13.2,5.6,27.6,11.6,46.4,11.6c13.6,0,30-3.2,50-12
			C352.22,323.989,354.22,319.589,352.22,315.989z"/>
	</g>
</g>
<g>
	<g>
		<path d="M106.22,75.589c-2.8-2.8-7.6-2.8-10.4,0l-27.6,27.6v-80.4c0-4-3.2-7.2-7.2-7.2s-7.2,3.2-7.2,7.2v80.4l-27.6-27.6
			c-2.8-2.8-7.6-2.8-10.4,0c-2.8,2.8-2.8,7.6,0,10.4l40,40c0.8,0.8,1.6,1.2,2.4,1.6c0.8,0.4,2,0.4,2.8,0.4c0.8,0,2,0,2.8-0.4
			c0.8-0.4,1.6-0.8,2.4-1.6l40-40C109.02,83.189,109.02,78.389,106.22,75.589z"/>
	</g>
</g>
<g>
	<g>
		<path d="M221.82,75.989c-2.8-2.8-7.6-2.8-10.4,0l-27.6,27.6v-80.8c0-4-3.2-7.2-7.2-7.2s-7.2,3.2-7.2,7.2v80.4l-27.6-27.6
			c-2.8-2.8-7.6-2.8-10.4,0c-2.8,2.8-2.8,7.6,0,10.4l40,40c0.8,0.8,1.6,1.2,2.4,1.6c0.8,0.8,2,0.8,2.8,0.8s2,0,2.8-0.4
			c0.8-0.4,1.6-0.8,2.4-1.6l40-40C224.62,83.589,224.62,78.789,221.82,75.989z"/>
	</g>
</g>
<g>
	<g>
		<path d="M337.42,75.589c-2.8-2.8-7.6-2.8-10.4,0l-27.6,27.6v-80.4c0-4-3.2-7.2-7.2-7.2s-7.2,3.2-7.2,7.2v80.4l-27.6-27.6
			c-2.8-2.8-7.6-2.8-10.4,0c-2.8,2.8-2.8,7.6,0,10.4l40,40c0.8,0.8,1.6,1.2,2.4,1.6c0.8,0.4,2,0.4,2.8,0.4s2,0,2.8-0.4
			c0.8-0.4,1.6-0.8,2.4-1.6l40-40C340.22,83.189,340.22,78.389,337.42,75.589z"/>
	</g>
</g>
<g>
</g>
<g>
</g>
<g>
</g>
<g>
</g>
<g>
</g>
<g>
</g>
<g>
</g>
<g>
</g>
<g>
</g>
<g>
</g>
<g>
</g>
<g>
</g>
<g>
</g>
<g>
</g>
<g>
</g>
</svg>
