<?xml version="1.0" encoding="iso-8859-1"?>
<!-- Generator: Adobe Illustrator 19.0.0, SVG Export Plug-In . SVG Version: 6.00 Build 0)  -->
<svg version="1.1" id="Capa_1" xmlns="http://www.w3.org/2000/svg" xmlns:xlink="http://www.w3.org/1999/xlink" x="0px" y="0px"
	 viewBox="0 0 340.4 340.4" style="enable-background:new 0 0 340.4 340.4;" xml:space="preserve">
<g>
	<g>
		<path d="M176.6,3.6c-2.4-4.8-10.4-4.8-12.8,0c-4,7.2-98,177.6-98,232.4c0,57.6,46.8,104.4,104.4,104.4S274.6,293.6,274.6,236
			C274.6,181.2,180.6,10.8,176.6,3.6z M170.2,326c-49.6,0-89.6-40.4-89.6-89.6c0-43.2,68-173.6,89.6-213.6
			c21.6,40,89.6,170.4,89.6,213.6C259.8,286,219.4,326,170.2,326z"/>
	</g>
</g>
<g>
	<g>
		<path d="M170.6,280.8c-46.4-1.2-49.2-46.4-49.6-48.4c-0.4-4-3.6-7.2-7.6-6.8c-4,0.4-7.2,3.6-6.8,7.6c0.8,21.2,15.6,61.2,63.6,62.4
			c4,0,7.6-3.2,7.6-7.2S174.6,280.8,170.6,280.8z"/>
	</g>
</g>
<g>
</g>
<g>
</g>
<g>
</g>
<g>
</g>
<g>
</g>
<g>
</g>
<g>
</g>
<g>
</g>
<g>
</g>
<g>
</g>
<g>
</g>
<g>
</g>
<g>
</g>
<g>
</g>
<g>
</g>
</svg>
